/* XPM */
static char *_41eaa95e3084037df9253c2b8f3392038k6dNs6iOLKPAZ4[] = {
/* columns rows colors chars-per-pixel */
"100 100 3 1 ",
"  c None",
". c black",
"X c #FF7E00",
/* pixels */
"                                                                                                    ",
"                                                                                                    ",
"                                                                                                    ",
"                                                                                                    ",
"                                                                                                    ",
"                                                                                                    ",
"                                                                                                    ",
"                                                                                                    ",
"                                                                                                    ",
"                                                                                                    ",
"                                                                                                    ",
"                                                                                                    ",
"                                                                                                    ",
"                                                                                                    ",
"                                                                                                    ",
"                                                                                                    ",
"                                                                                                    ",
"                                                                                                    ",
"                                                                                                    ",
"                                                                                                    ",
"                                                                                                    ",
"                                                                                                    ",
"                                                                                                    ",
"                                                                                                    ",
"                                                                                                    ",
"                                            .........                                               ",
"                                         ...XXXX.XXXX...                                            ",
"                                       ..XXXXXXX.XXXXXXX..                                          ",
"                                     ..XXXXXXXXX.XXXXXXXXX..                                        ",
"                                    .XXXXXXXXXXX.XXXXXXXXXXX.                                       ",
"                                   ..XXXXXXXXXXX.XXXXXXXXXXX..                                      ",
"                                  .X.XXXXXXXXXXX.XXXXXXXXXXX.X.                                     ",
"                                 .XX.XXXXXXXXXXX.XXXXXXXXXXX.XX.                                    ",
"                                .XXXX.XXXXXXXXXX.XXXXXXXXXX.XXXX.                                   ",
"                                .XXXX.XXXXXXXXXX.XXXXXXXXXX.XXXX.                                   ",
"                               .XXXXX.XXXXXXXXXX.XXXXXXXXXX.XXXXX.                                  ",
"                              .XXXXXX.XXXXXXXXXX.XXXXXXXXXX.XXXXXX.                                 ",
"                              .XXXXXX.XXXXXXXXXX.XXXXXXXXX.XXXXXXX.                                 ",
"                              .XXXXXXX.XXXXXXXXX.XXXXXXXXX.XXXXXXX.                                 ",
"                             .XXXXXXXX.XXXXXXXXX.XXXXXXXXX.XXXXXXXX.                                ",
"                             .XXXXXXXX.XXXXXXXXX.XXXXXXXXX.XXXXXXXX.                                ",
"                             .XXXXXXXX.XXXXXXXXX.XXXXXXXX.XXXXXXXXX.                                ",
"                             .XXXXXXXXX.XXXXXXXX.XXXXXXXX.XXXXXXXXX.                                ",
"                             .XXXXXXXXX.XXXXXXXX.XXXXXXXX.XXXXXXXXX.                                ",
"                             .......................................                                ",
"                             .XXXXXXXXX.XXXXXXXX.XXXXXXXX.XXXXXXXXX.                                ",
"                             .XXXXXXXXX.XXXXXXXX.XXXXXXXX.XXXXXXXXX.                                ",
"                             .XXXXXXXX.XXXXXXXXX.XXXXXXXXX.XXXXXXXX.                                ",
"                              .XXXXXXX.XXXXXXXXX.XXXXXXXXX.XXXXXXX.                                 ",
"                              .XXXXXXX.XXXXXXXXX.XXXXXXXXX.XXXXXXX.                                 ",
"                              .XXXXXXX.XXXXXXXXX.XXXXXXXXX.XXXXXXX.                                 ",
"                               .XXXXX.XXXXXXXXXX.XXXXXXXXXX.XXXXX.                                  ",
"                                .XXXX.XXXXXXXXXX.XXXXXXXXXX.XXXX.                                   ",
"                                .XXXX.XXXXXXXXXX.XXXXXXXXXX.XXXX.                                   ",
"                                 .XXX.XXXXXXXXXX.XXXXXXXXXX.XXX.                                    ",
"                                  .X.XXXXXXXXXXX.XXXXXXXXXXX.X.                                     ",
"                                   ..XXXXXXXXXXX.XXXXXXXXXXX..                                      ",
"                                    .XXXXXXXXXXX.XXXXXXXXXXX.                                       ",
"                                     ..XXXXXXXXX.XXXXXXXXX..                                        ",
"                                       ..XXXXXXX.XXXXXXX..                                          ",
"                                         ...XXXX.XXXX...                                            ",
"                                            .........                                               ",
"                                                                                                    ",
"                                                                                                    ",
"                                                                                                    ",
"                                                                                                    ",
"                                                                                                    ",
"                                                                                                    ",
"                                                                                                    ",
"                                                                                                    ",
"                                                                                                    ",
"                                                                                                    ",
"                                                                                                    ",
"                                                                                                    ",
"                                                                                                    ",
"                                                                                                    ",
"                                                                                                    ",
"                                                                                                    ",
"                                                                                                    ",
"                                                                                                    ",
"                                                                                                    ",
"                                                                                                    ",
"                                                                                                    ",
"                                                                                                    ",
"                                                                                                    ",
"                                                                                                    ",
"                                                                                                    ",
"                                                                                                    ",
"                                                                                                    ",
"                                                                                                    ",
"                                                                                                    ",
"                                                                                                    ",
"                                                                                                    ",
"                                                                                                    ",
"                                                                                                    ",
"                                                                                                    ",
"                                                                                                    ",
"                                                                                                    ",
"                                                                                                    ",
"                                                                                                    "
};
