/* XPM */
static char *_8348cd8d20a482892d82b28a6f6f18dcKgqeba6tMJLgUkj[] = {
/* columns rows colors chars-per-pixel */
"64 64 13 1 ",
"  c black",
". c #A51419",
"X c #ED1C24",
"o c #9B7B23",
"O c #9B7B24",
"+ c #75A114",
"@ c #B2870A",
"# c #DEB033",
"$ c #A8E61D",
"% c #93AE83",
"& c #D3F9BC",
"* c #FFF9BD",
"= c #B5A5D5",
/* pixels */
"================================================================",
"================================================================",
"================================================================",
"================================================================",
"================================================================",
"================================================================",
"===============================  ===============================",
"============================== OO ==============================",
"======= ====================== OO ====================== =======",
"====== O ==================== OO## ==================== O ======",
"===== #O ==================== OO## ==================== O# =====",
"===== #OO ================== OO#### ================== O## =====",
"===== ##OO ================= O##### ================= OO## =====",
"===== ###OO =============== OO###### =============== O#### =====",
"===== ###OO =============== O####### =============== O#### =====",
"===== ####OO ============= OO######## ============= OO#### =====",
"===== ####OO ============= OO######## ============= OO#### =====",
"===== #####O ============ OO########## ============ O##### =====",
"===== ######O =========== OO########## =========== O###### =====",
"===== ######O ========== OO############ ========== O###### =====",
"===== ######O ========== OO############ ========== O###### =====",
"===== #######O ======== OO############## ======== OO###### =====",
"===== #######O ======== OO####o  ####### ======== O####### =====",
"===== ########O ====== OO#####o  ######## ====== OO####### =====",
"===== ########O ====== O#####oo  ######## ====== O######## =====",
"===== ########O ===== OO####oo    ######## ===== O######## =====",
"===== #########O ==== O####oo  **  ####### ==== OO######## =====",
"===== ##########   = OO####o  ****  ####### =   O######### =====",
"=====  #########OOO  OO###o  ******  ######  OO##########  =====",
"=====   #########OOOOO###oo ******** ###################   =====",
"===== * ##########OOO###oo  ********  ################## * =====",
"===== *  ###############oo ********** #################  * =====",
"===== ** ###############oo  ********  ################# ** =====",
"===== *  ################oo  ******  ##################  * =====",
"===== * #################ooo  ****  #################### * =====",
"===== * ##################ooo  **  ##################### * =====",
"=====   ###################ooo    ######################   =====",
"===== #####################oooo  ######################### =====",
"===== ########################o  ######################### =====",
"===== #################################################### =====",
"===== #################################################### =====",
"===== ########################    ######################## =====",
"===== ######################   %%   ###################### =====",
"===== ###############   @### &%%&&% ###@   ############### =====",
"===== ########...### +++ ##  &%%&&&  ## +++ ###...######## =====",
"======  #####...XX# ++$$$ # &&%%&&&& # $$$++ #XX...#####  ======",
"======== @@@@..XXX@ +$$$$ @ &&%%&&&& @ $$$$+ @XXX..@@@@ ========",
"======== @@@@..XXX@ +$$$$ @ &&%%&&&& @ $$$$+ @XXX..@@@@ ========",
"======  OOOOO..XXX# ++$$$ #  %%%&&%  # $$$++ #XXX..#####  ======",
"===== OOOOOOOO.XX### +$$ ###  %%%%  ### $$+ ###XX.######## =====",
"===== OOOOOOOOO######   #####      #####   ############### =====",
"===== OOOOOOOOOOOOOOO##################################### =====",
"=====  OOOOOOOOOOOOOOOOOOOOOooooooooooooooooooooooooooooo  =====",
"=======                                                  =======",
"================================================================",
"================================================================",
"================================================================",
"================================================================",
"================================================================",
"================================================================",
"================================================================",
"================================================================",
"================================================================",
"================================================================"
};
