/* XPM */
static char *_37ccf171c4242a8864e92c4e7c4f552ka5CQw4FrjJrrG5n[] = {
/* columns rows colors chars-per-pixel */
"64 64 8 1 ",
"  c black",
". c #6F523B",
"X c #7E777E",
"o c #A07655",
"O c #E5AA7A",
"+ c #B5AAB5",
"@ c #B5A5D5",
"# c white",
/* pixels */
"@@@@@@@@@@@@@@@@@@@@@@@@@@@@@@@@@@@@@@@@@@@@@@@@@@@@@@@@@@@@@@@@",
"@@@@@@@@@@@@@@@@@@@@@@@@@@@@@@@@@@      @@       @@@@@@@@@@@@@@@",
"@@@@@@@@@@@@@@@@@@@@@@@@@@@@@@@@@  ooo.    ooooo     @@@@@@@@@@@",
"@@@@@@@@@@@@@@@@@@@@@@@@@@@@@@@@ ooooo  oooo..oo..oo   @@@@@@@@@",
"@@@@@@@@@@@@@@@@@@@@@@@@@@@@@@@ oooo  ooooOOoooooooooo  @@@@@@@@",
"@@@@@@@@@@@@@@@@@@@@@@@@@@@@@@ oooo  oooOOOOOoooooooooo  @@@@@@@",
"@@@@@@@@@@@@@@@@@@@@@@@@@@@@@  ooo  oooOOOOOOOoooooooooo @@@@@@@",
"@@@@@@@@@@@@@@@@@@@@@@@@@@@@@ ooo  ooOOOOOOOOO        ooo @@@@@@",
"@@@@@@@@@@@@@@@@@@@@@@@@@@@@ ooo  ooOOOOOOOO   @@@@@@   o  @@@@@",
"@@@@@@@@@@@@@@@@@@@@@@@@@@@@ ooo oooOOOOOOO  @@@@@@@@@@    @@@@@",
"@@@@@@@@@@@@@@@@@@@@@@@@@@@@ oo  oooOOOOOO  @@@@@@@@@@@@   @@@@@",
"@@@@@@@@@@@@@@@@@@@@@@@@@@@  oo oooOOOOOO  @@@@@@@@@@@@@@  @@@@@",
"@@@@@@@@@@@@@@@@@@@@@@@@@@@ oo  oooOOOOOO @@@@@@@@@@@@@@@@@@@@@@",
"@@@@@@@@@@@@@@@@@@@@@@@@@@@ oo ooooOOOOOO @@@@@@@@@@@@@@@@@@@@@@",
"@@@@@@@@@@@@@@@@@@@@@@@@@@@ oo oooOOOOOO  @@@@@@@@@@@@@@@@@@@@@@",
"@@@@@@@@@@@@@@@@@@@@@@@@@@@  o oooOOOOOO  @@@@@@@@@@@@@@@@@@@@@@",
"@@@@@@@@@@@@@@@@@@@@@@@@@@@@ o ooooOOOOOO @@@@@@@@@@@@@@@@@@@@@@",
"@@@@@@@@@@@@@@@@@@@@@@@@@@@@ o ooooOOOOOO @@@@@@@  @@@@@@@@@@@@@",
"@@@@@@@@@@@@@@@@@@@@@@@@@@@@    oooooo     @@@ @   @@@@@@@@@@@@@",
"@@@@@@@@@@@@@@@@@@@@@@@@          o         @@   X @@@@@@@@@@@@@",
"@@@@@@@@@@@@@@@@@@@@@@@ XXXXXXXXX     ++       XXX @@@@@@@@@@@@@",
"@@@@@@@@@@@@@@@@@@@@@@  XXXXXXXXXX+ +++++++++XXXXX @@@@@@@@@@@@@",
"@@@@@@@@@@@@@@@@@@@@@@ XX++++++++++++++++++XXXXXX @@@@@@@@@@@@@@",
"@@@@@@@@@@@@@@@@@@@@  XX++++++++++++++++++XXXXXXX @@@@@@@@@@@@@@",
"@@@@@@@@@@@@@@@@@@@@ XX++++++++++++++++++XXXXXXX @@@@@@@@@@@@@@@",
"@@@@@@@@@@@@@@@@@@@  ++++++++++++++++++XXXXXXXX  @@@@@@@@@@@@@@@",
"@@@@@@@@@@@@@@@@@@  ++++++         +++XXXXXXX   @@@@@@@@@@@@@@@@",
"@@@@@@@@@@@@@@@@@ +++++++++  #   ++++++      +  @@@@@@@@@@@@@@@@",
"@@@@@@@@@@@@@@@@  ++++++++++   ++++++++++++++++  @@@@@@@@@@@@@@@",
"@@@@@@@@@@@@@@@  +++++++++++++++++++++++++++++++ @@@@@@@@@@@@@@@",
"@@@@@@@@@@@@@@  ++++++++++++++++++++++++++++++++ @@@@@@@@@@@@@@@",
"@@@@@@@@@@@@@  +++++++++++++++++++++++++++++++++ @@@@@@@@@@@@@@@",
"@@@@@@@@@@@   ++++++++++++++++++++++++++++++++++ @@@@@@@@@@@@@@@",
"@@@@@@@@@@  ++++++++++++++++++++++++++++++++++++ @@@@@@@@@@@@@@@",
"@@@@@@@@   ++ ++++++++++++++++++++++++++++++++++ @@@@@@@@@@@@@@@",
"@@@@@@@       ++++++++++++++++++++++++++++++++++ @@@@@@@@@@@@@@@",
"@@@@@@@       +++++++++++++++++++++++++++++++++  @@@@@@@@@@@@@@@",
"@@@@@@      +++++++++++++++++++++++++++++++++++ @@@@@@@@@@@@@@@@",
"@@@@@@ + ++++++++++++++++++++++++++XXX++++++   @@@@@@@@@@@@@@@@@",
"@@@@@@ + +++++++++++++++++++++++++XXXX+++XX  @@@@@@@@@@@@@@@@@@@",
"@@@@@@   +++++++++++++++++++++++++XXX+++XX  @@@@@@@@@@@@@@@@@@@@",
"@@@@@@@  ++++++++++++++++++++XXXXXXXXX+XXX @@@@@@@@@@@@@@@@@@@@@",
"@@@@@@@   ++++++++++++++XX+XXXXXXXXXXXXX   @@@@@@@@@@@@@@@@@@@@@",
"@@@@@@@@   +++++  +++X+XXXXXXXXXXXXXXXX   @@@@@@@@@@@@@@@@@@@@@@",
"@@@@@@@@@          +XXXXXXXXXXXXXXXXXXX @ @@@@@@@@@@@@@@@@@@@@@@",
"@@@@@@@@@@@@@   XXXXXXXXXXXXXXXXX  X   @@@@@@@@@@@@@@@@@@@@@@@@@",
"@@@@@@@@@@@@@@@  XXXXXXXXXXXXXXX       @@@@@@@@@@@@@@@@@@@@@@@@@",
"@@@@@@@@@@@@@@@@ XXXXXXXXX XXXX @@@ @  @@@@@@@@@@@@@@@@@@@@@@@@@",
"@@@@@@@@@@@@@@@@   XXXXXX    X  @@@ @@@@@@@@@@@@@@@@@@@@@@@@@@@@",
"@@@@@@@@@@@@@@@@@  XXXXXX @@ X @@@@@@@@@@@@@@@@@@@@@@@@@@@@@@@@@",
"@@@@@@@@@@@@@@@@@@ XXXXXX @@   @@@@@@@@@@@@@@@@@@@@@@@@@@@@@@@@@",
"@@@@@@@@@@@@@@@@@@ XXXXX @@@@ @@@@@@@@@@@@@@@@@@@@@@@@@@@@@@@@@@",
"@@@@@@@@@@@@@@@@@@  XX   @@@@ @@@@@@@@@@@@@@@@@@@@@@@@@@@@@@@@@@",
"@@@@@@@@@@@@@@@@@@@     @@@@@@@@@@@@@@@@@@@@@@@@@@@@@@@@@@@@@@@@",
"@@@@@@@@@@@@@@@@@@@     @@@@@@@@@@@@@@@@@@@@@@@@@@@@@@@@@@@@@@@@",
"@@@@@@@@@@@@@@@@@@@  @@@@@@@@@@@@@@@@@@@@@@@@@@@@@@@@@@@@@@@@@@@",
"@@@@@@@@@@@@@@@@@@@@@@@@@@@@@@@@@@@@@@@@@@@@@@@@@@@@@@@@@@@@@@@@",
"@@@@@@@@@@@@@@@@@@@@@@@@@@@@@@@@@@@@@@@@@@@@@@@@@@@@@@@@@@@@@@@@",
"@@@@@@@@@@@@@@@@@@@@@@@@@@@@@@@@@@@@@@@@@@@@@@@@@@@@@@@@@@@@@@@@",
"@@@@@@@@@@@@@@@@@@@@@@@@@@@@@@@@@@@@@@@@@@@@@@@@@@@@@@@@@@@@@@@@",
"@@@@@@@@@@@@@@@@@@@@@@@@@@@@@@@@@@@@@@@@@@@@@@@@@@@@@@@@@@@@@@@@",
"@@@@@@@@@@@@@@@@@@@@@@@@@@@@@@@@@@@@@@@@@@@@@@@@@@@@@@@@@@@@@@@@",
"@@@@@@@@@@@@@@@@@@@@@@@@@@@@@@@@@@@@@@@@@@@@@@@@@@@@@@@@@@@@@@@@",
"@@@@@@@@@@@@@@@@@@@@@@@@@@@@@@@@@@@@@@@@@@@@@@@@@@@@@@@@@@@@@@@@"
};
