/* XPM */
static char *_7736bfc87764030f26a675b89558b3cOENAMVm2ZUaxhYsg[] = {
/* columns rows colors chars-per-pixel */
"64 64 8 1 ",
"  c black",
". c #6D3F2A",
"X c #9C5A3C",
"o c #B2A900",
"O c #FFF200",
"+ c #B4B4B4",
"@ c #B5A5D5",
"# c white",
/* pixels */
"@@@@@@@@@@@@@@@@@@@@@@@@@@@@@@@@@@@@@@@@@@@@@@@@@@@@@@@@@@@@@@@@",
"@@@@@@@@@@@@@@@@@@@@@@@@@@@@@@@@@@@@@@@@@@@@@@@@@@@@@@@@@@@@@@@@",
"@@@@@@@@@@@@@@@@@@@@@@@@@@@@@@@@@@@@@@@@@@@@@@@@@@@@@@@@@@@@@@@@",
"@@@@@@@@@@@@@@@@@@@@@@@@@@@@@@@@@@@@@@@@@@@@@@@@@@@@@@@@@@@@@@@@",
"@@@@@@@@@@@@@@@@@@@@@@@@            @@@@@@@@@@@@@@@@@@@@@@@@@@@@",
"@@@@@@@@@@@@@@@@@@@@@@                 @@@@@@@@@@@@@@@@@@@@@@@@@",
"@@@@@@@@@@@@@@@@@@@@                     @@@@@@@@@@@@@@@@@@@@@@@",
"@@@@@@@@@@@@@@@@@@@                       @@@@@@@@@@@@@@@@@@@@@@",
"@@@@@@@@@@@@@@@@@@   ..........XXXXXXXXXX  @@@@@@@@@@@@@@@@@@@@@",
"@@@@@@@@@@@@@@@@   .........XXXXXXXXXXXXX   @@@@@@@@@@@@@@@@@@@@",
"@@@@@@@@@@@@@@@@  ........XXXXXXXXXXXXXXXX   @@@@@@@@@@@@@@@@@@@",
"@@@@@@@@@@@@@@@  .....XXXXXXXXXXXXXXXXXXXXX  @@@@@@@@@@@@@@@@@@@",
"@@@@@@@@@@@@@@  ...XXXXXXXXXXXXXXXXXXXXXXXXX  @@@@@@@@@@@@@@@@@@",
"@@@@@@@@@@@@@  ..XXXXXXX..XXXXXXXXXXXXXXXXXXX  @@@@@@@@@@@@@@@@@",
"@@@@@@@@@@@@@  ..XXXX.....XXXXXX.......XXXXXX  @@@@@@@@@@@@@@@@@",
"@@@@@@@@@@@@@  .XXXXXXXXXXXXXXXXXXXXXX...XXXXX  @@@@@@@@@@@@@@@@",
"@@@@@@@@@@@@  ..XXXXXXXXXXXXXXXXXXXXXXXXXXXXXX  @@@@@@@@@@@@@@@@",
"@@@@@@@@@@@@  .XXXXXXXXXXXXXXXXXXXXXXXXXXXXXXX  @@@@@@@@@@@@@@@@",
"@@@@@@@@@@@@ ..XXXXXXXXXXXXXXXXXXXXXXXXXXXXXXX  @@@@@@@@@@@@@@@@",
"@@@@@@@@@@@@ ..XXX   XXXXXXXXXXXXX      XXXXXXX  @@@@@@@@@@@@@@@",
"@@@@@@@@@@@@ .XX          XXXXXXXX          XXX  @@@@@@@@@@@@@@@",
"@@@@@@@@@@@@ X     oooo   XXXXXX  oooooo     XX  @@@@@@@@@@@@@@@",
"@@@@@@@@@@@@   oooooooooo  XXXXX  oooooooooo XX  @@@@@@@@@@@@@@@",
"@@@@@@@@@@@@  ooooooOOOO   XXXXX ooooooOOOOO XXX @@@@@@@@@@@@@@@",
"@@@@@@@@   @  oooOOOOOOO          ooooOOOOOO  XX   @@@@@@@@@@@@@",
"@@@@@@@@ X     ooOOOOOOOO XXXXXX  ooOOOOOOOO        @@@@@@@@@@@@",
"@@@@@@@@ XX  X oOOOOOOOO  XXXXXXX  ooOOOOOO  XXX  X @@@@@@@@@@@@",
"@@@@@@@  XX  X  OOOOOOOO  XXXXX X  OOOOOO   XXXX XX  @@@@@@@@@@@",
"@@@@@@@ X X XXX           XXXXX  X       ...XXXX XXX @@@@@@@@@@@",
"@@@@@@@ X X XXXXX..XXXXX XXXXXXX XXXXXXXXXXXXXXX X X @@@@@@@@@@@",
"@@@@@@@   X XXX...XXXXXXXXXXXXXXXXXXXXXXXXXXXXX  X X @@@@@@@@@@@",
"@@@@@@@  XX XXXXXXXXX XXXXXXXXXXXXXXXXXXXXXXXXX XX X @@@@@@@@@@@",
"@@@@@@@  XX XXXXX   X XXXXXXXXXXXX  XX   XXXXXX XX X @@@@@@@@@@@",
"@@@@@@@  XX XXXXX XXX XXXXXXXXXX XX XXXX  XXXXX XX X @@@@@@@@@@@",
"@@@@@@@ XXX XXXXXXXXX X   XXX       XXXXXXXXXX  XX X @@@@@@@@@@@",
"@@@@@@@ XXX XXXX   XX   X XXX XXXX  XXXXXXXXXX   XX  @@@@@@@@@@@",
"@@@@@@@  XX  XX. XXXXXXXXXXXXXXXXXXXXXXXXXXXX    XX @@@@@@@@@@@@",
"@@@@@@@@  X  XX. XXX      XXXX       XXXXX..X    X  @@@@@@@@@@@@",
"@@@@@@@@@     X. X                    XXXXX.X      @@@@@@@@@@@@@",
"@@@@@@@@@@     .XXXX   #####+###       XXXX.      @@@@@@@@@@@@@@",
"@@@@@@@@@@@     .XXXX   ++#####+++  XXXXXXX.     @@@@@@@@@@@@@@@",
"@@@@@@@@@@@      XXXXXX   +++++   XXXXXXXXX.     @@@@@@@@@@@@@@@",
"@@@@@@@@@@@      XXXX  XX       XX  XXXXXXX      @@@@@@@@@@@@@@@",
"@@@@@@@@@@@       XXXX   XXXXXXXX  XXXXXXX       @@@@@@@@@@@@@@@",
"@@@@@@@@@@@        XXXXX   XXXXX  XXXXXXX        @@@@@@@@@@@@@@@",
"@@@@@@@@@@@          XXXXX       XXXXX           @@@@@@@@@@@@@@@",
"@@@@@@@@@@@           XXX         XXX            @@@@@@@@@@@@@@@",
"@@@@@@@@@@@            XX        XXX             @@@@@@@@@@@@@@@",
"@@@@@@@@@@@            XXXXXXXXXXXXX            @@@@@@@@@@@@@@@@",
"@@@@@@@@@@@             XXXXXXXXXXX             @@@@@@@@@@@@@@@@",
"@@@@@@@@@@@              XXXXXXXX X            @@@@@@@@@@@@@@@@@",
"@@@@@@@@@@@@              XXXXX                @@@@@@@@@@@@@@@@@",
"@@@@@@@@@@@@@                                 @@@@@@@@@@@@@@@@@@",
"@@@@@@@@@@@@@@@                              @@@@@@@@@@@@@@@@@@@",
"@@@@@@@@@@@@@@@@@                            @@@@@@@@@@@@@@@@@@@",
"@@@@@@@@@@@@@@@@@@                        @@@@@@@@@@@@@@@@@@@@@@",
"@@@@@@@@@@@@@@@@@@@@                    @@@@@@@@@@@@@@@@@@@@@@@@",
"@@@@@@@@@@@@@@@@@@@@@@                @@@@@@@@@@@@@@@@@@@@@@@@@@",
"@@@@@@@@@@@@@@@@@@@@@@@@@@@@@@@@@@@@@@@@@@@@@@@@@@@@@@@@@@@@@@@@",
"@@@@@@@@@@@@@@@@@@@@@@@@@@@@@@@@@@@@@@@@@@@@@@@@@@@@@@@@@@@@@@@@",
"@@@@@@@@@@@@@@@@@@@@@@@@@@@@@@@@@@@@@@@@@@@@@@@@@@@@@@@@@@@@@@@@",
"@@@@@@@@@@@@@@@@@@@@@@@@@@@@@@@@@@@@@@@@@@@@@@@@@@@@@@@@@@@@@@@@",
"@@@@@@@@@@@@@@@@@@@@@@@@@@@@@@@@@@@@@@@@@@@@@@@@@@@@@@@@@@@@@@@@",
"@@@@@@@@@@@@@@@@@@@@@@@@@@@@@@@@@@@@@@@@@@@@@@@@@@@@@@@@@@@@@@@@"
};
