/* XPM */
static char *a236674b5ca8437cd5ee8d4dfad8de42JUZ2Ca593wlicG6q[] = {
/* columns rows colors chars-per-pixel */
"64 64 6 1 ",
"  c black",
". c #7C5E06",
"X c #4D226A",
"o c #B28709",
"O c #FFC20E",
"+ c #6F3198",
/* pixels */
".............ooooooOOOOOOOOOOOOOOOOOOOOOOOOOOoooooo.............",
".........ooooooOOOOOOOOOOOOOOOOOOOOOOOOOOOOOOOOOOoooooo.........",
"........ooooOOOOOOOOOOOOOOOOOOOOOOOOOOOOOOOOOOOOOOOOoooo........",
".......ooooOOOOOOOOOOOOOOOOOOOOOOOOOOOOOOOOOOOOOOOOOOoooo.......",
"......oooOOOOOOOOOOOOOOOOOOOOOOOOOOOOOOOOOOOOOOOOOOOOOOooo......",
".....oooOOOOOOO       OO   OOOO  OOO  OO     OO     OOOOooo.....",
"....oooOOOOOOOO       O     OOO   O   OO     O      OOOOOooo....",
"....ooOOOOOOOOOOOO  OOO  O  OOO   O   OO  OOOO  OOOOOOOOOOoo....",
"...ooOOOOOOOOOOOOO  OO  OOO  OO       OO    OOO    OOOOOOOOoo...",
"..oooOOOOOOOO   OO  OO       O      O  O    OOOOOO  OOOOOOOooo..",
"..ooOOOOOOOOOO  OO  OO       O  O   O  O  OOOOOOOO  OOOOOOOOoo..",
".ooOOOOOOOOOOO      OO  OOO  O  OOOOO  O     O      OOOOOOOOOoo.",
".ooOOOOOOOOOOO      OO  OOO  O  OOOOO  O     O     OOOOOOOOOOoo.",
".oOOOOOOOOOOOOOOOOOOOOOOOOOOOOOOOOOOOOOOOOOOOOOOOOOOOOOOOOOOOOo.",
"ooOOOOOOOOOOOOOOOOOOOOOOOOOOOOOOOOOOOOOOOOOOOOOOOOOOOOOOOOOOOOoo",
"ooOOOOOOOOOOOOOOOOOOOOOOOOOOOOOOOOOOOO              OOOOOOOOOOoo",
"oOOOOOOOOOOOOO           OOOOOOOOOOOO +++++++++++++ OOOOOOOOOOOo",
"oOOOOOOOOOOOO +++++++++++ OOOOOOOOOO +++++++++++++++  OOOOOOOOOo",
"oOOOOOOOOOOO +++++++++++++ OOOOOOOO ++++++++++++++++++ OOOOOOOOo",
"OOOOOOOOOO  +++++++++++++++ OOOOOO ++++++++++++++++++++ OOOOOOOO",
"OOOOOOOOOO +++++++++++++++++ OOOO +++++XXXXXXXXXX++++++ OOOOOOOO",
"OOOOOOOOOO ++++++++++++++++++ OOO +++++          ++++++ OOOOOOOO",
"OOOOOOOOO ++++++XXXXXXX++++++ OOO XXXXX OOOOOOOO ++++++ OOOOOOOO",
"OOOOOOOOO +++++        ++++++ OOO       OOOOOOOO ++++++ OOOOOOOO",
"OOOOOOOOO ++++X OOOOOO ++++++ OOOOOOOOOOOOOOOOOO ++++++ OOOOOOOO",
"OOOOOOOOO ++++X OOOOOO ++++++ OOOOOOOOOOOOOOOOOO ++++++ OOOOOOOO",
"OOOOOOOOO       OOOOOO ++++++ OOOOOOOOOOOOOOOOOO +++++ OOOOOOOOO",
"OOOOOOOOOOOOOOOOOOOOOO ++++++ OOOOOOOOOOOOOOOOOO +++++ OOOOOOOOO",
"OOOOOOOOOOOOOOOOOOOOOO ++++++ OOOOOOOOOOOO       ++++ OOOOOOOOOO",
"OOOOOOOOOOOOOOOOOOOOO +++++++ OOOOOOOOOOOO XXXXXX++++ OOOOOOOOOO",
"OOOOOOOOOOOOOOOOOOOO ++++++++ OOOOOOOOOOOO +++++++++ OOOOOOOOOOO",
"OOOOOOOOOOOOOOOOOO  +++++++++ OOOOOOOOOOOO ++++++++++ OOOOOOOOOO",
"OOOOOOOOOOOOOOOOO +++++++++  OOOOOOOOOOOOO ++++++++++ OOOOOOOOOO",
"OOOOOOOOOOOOOOOO +++++++++ OOOOOOOOOOOOOOO +++++++++++ OOOOOOOOO",
"OOOOOOOOOOOOOOO ++++++++  OOOOOOOOOOOOOOOO +++++++++++ OOOOOOOOO",
"OOOOOOOOOOOOOO ++++++++ OOOOOOOOOOOOOOOOOO       ++++++ OOOOOOOO",
"OOOOOOOOOOOO  ++++++++ OOOOOOOOOOOOOOOOOOOOOOOOO ++++++ OOOOOOOO",
"OOOOOOOOOOO ++++++++  OOOOOOOOOOOOOOOOOOOOOOOOOO ++++++ OOOOOOOO",
"OOOOOOOOOO ++++++++ OOOOOOOOOOOOO      OOOOOOOOO ++++++ OOOOOOOO",
"OOOOOOOOOO ++++++++ OOOOOOOOOOOOO XXXX OOOOOOOOO ++++++ OOOOOOOO",
"OOOOOOOOOO ++++++++            OO ++++           ++++++ OOOOOOOO",
"OOOOOOOOOO +++++++++++++++++++ OO ++++XXXXXXXXXXX++++++ OOOOOOOO",
"OOOOOOOOOO +++++++++++++++++++ OO +++++++++++++++++++++ OOOOOOOO",
"OOOOOOOOOO +++++++++++++++++++ OO +++++++++++++++++++++ OOOOOOOO",
"OOOOOOOOOO +++++++++++++++++++ OOO ++++++++++++++++++++ OOOOOOOO",
"oOOOOOOOOO +++++++++++++++++++ OOOO  ++++++++++++++++  OOOOOOOOo",
"oOOOOOOOOO XXXXXXXXXXXXXXXXXXX OOOOOO ++++++++++++++ OOOOOOOOOOo",
"oOOOOOOOOO                     OOOOOOO              OOOOOOOOOOOo",
"ooOOOOOOOOOOOOOOOOOOOOOOOOOOOOOOOOOOOOOOOOOOOOOOOOOOOOOOOOOOOOoo",
"ooOOOOOOOOOOOOOOOOOOOOOOOOOOOOOOOOOOOOOOOOOOOOOOOOOOOOOOOOOOOOoo",
".oOOOOOOOOOOOOOOOOOOOOOOOOOOOOOOOOOOOOOOOOOOOOOOOOOOOOOOOOOOOOo.",
".ooOOOOOOOOOOOOOOOOOOOOOOOOOOOOOOOOOOOOOOOOOOOOOOOOOOOOOOOOOOoo.",
".ooOOOOOOOOOOOOOOOOOOOOOOOOOOOOOOOOOOOOOOOOOOOOOOOOOOOOOOOOOOoo.",
"..ooOOOOOOOOOOOOOOOOOOOOOOOOOOOOOOOOOOOOOOOOOOOOOOOOOOOOOOOOoo..",
"..oooOOOOOOOOOOOOOOOOOOOOOOOOOOOOOOOOOOOOOOOOOOOOOOOOOOOOOOooo..",
"...ooOOOOOOOOOOOOOOOOOOOOOOOOOOOOOOOOOOOOOOOOOOOOOOOOOOOOOOoo...",
"....ooOOOOOOOOOOOOOOOOOOOOOOOOOOOOOOOOOOOOOOOOOOOOOOOOOOOOoo....",
"....oooOOOOOOOOOOOOOOOOOOOOOOOOOOOOOOOOOOOOOOOOOOOOOOOOOOooo....",
".....oooOOOOOOOOOOOOOOOOOOOOOOOOOOOOOOOOOOOOOOOOOOOOOOOOooo.....",
"......oooOOOOOOOOOOOOOOOOOOOOOOOOOOOOOOOOOOOOOOOOOOOOOOooo......",
".......ooooOOOOOOOOOOOOOOOOOOOOOOOOOOOOOOOOOOOOOOOOOOoooo.......",
"........ooooOOOOOOOOOOOOOOOOOOOOOOOOOOOOOOOOOOOOOOOOoooo........",
".........ooooooOOOOOOOOOOOOOOOOOOOOOOOOOOOOOOOOOOoooooo.........",
".............ooooooOOOOOOOOOOOOOOOOOOOOOOOOOOoooooo............."
};
